PathFileType	4	(X/Y/Z)	 s08c0202.trc
DataRate	CameraRate	NumFrames	NumMarkers	Units	OrigDataRate	OrigDataStartFrame	OrigNumFrames
200	200	4	50	mm	200	1751	2000
Frame#	Time	racr			lacr			c7			jug			rlel			rdr			llel			ldr			s2			lic			ric			lasi			rasi			rpsi			lpsi			rgt			lgt			rth1			rth2			rth3			rth4			rlfc			rmfc			rsh1			rsh2			rsh3			rsh4			rlmal			rmmal			rcal			rtoe			rmt5			lth1			lth2			lth4			lth3			llfc			lmfc			llmal			lmmal			lcal			lmt5			lsh1			lsh2			lsh3			lsh4			ltoe			SBIKE			LBIKE			RBIKE			
		X1	Y1	Z1	X2	Y2	Z2	X3	Y3	Z3	X4	Y4	Z4	X5	Y5	Z5	X6	Y6	Z6	X7	Y7	Z7	X8	Y8	Z8	X9	Y9	Z9	X10	Y10	Z10	X11	Y11	Z11	X12	Y12	Z12	X13	Y13	Z13	X14	Y14	Z14	X15	Y15	Z15	X16	Y16	Z16	X17	Y17	Z17	X18	Y18	Z18	X19	Y19	Z19	X20	Y20	Z20	X21	Y21	Z21	X22	Y22	Z22	X23	Y23	Z23	X24	Y24	Z24	X25	Y25	Z25	X26	Y26	Z26	X27	Y27	Z27	X28	Y28	Z28	X29	Y29	Z29	X30	Y30	Z30	X31	Y31	Z31	X32	Y32	Z32	X33	Y33	Z33	X34	Y34	Z34	X35	Y35	Z35	X36	Y36	Z36	X37	Y37	Z37	X38	Y38	Z38	X39	Y39	Z39	X40	Y40	Z40	X41	Y41	Z41	X42	Y42	Z42	X43	Y43	Z43	X44	Y44	Z44	X45	Y45	Z45	X46	Y46	Z46	X47	Y47	Z47	X48	Y48	Z48	X49	Y49	Z49	X50	Y50	Z50	
1751	8.7550	526.452774	1322.835780	-12.045805	558.148611	1327.831560	-361.688905	525.093789	1425.767821	-183.764425	483.944735	1268.067981	-191.039100	532.982213	1069.096869	77.155827	766.576123	931.793752	-46.920060	546.145470	1089.016568	-514.178766	757.543681	936.439214	-421.645330	-11.068493	1205.641240	-257.435272	157.249019	1198.592794	-394.192013	114.466322	1221.507591	-81.247235	175.481597	1144.092445	-362.902798	160.319034	1174.902638	-112.191968	11.000700	1249.664471	-209.823332	20.335693	1247.114447	-302.811664	77.445854	1128.615423	-44.858687	84.963636	1069.886876	-423.483705	229.380089	1050.467722	-48.853202	316.529741	1033.504915	-52.949331	381.875708	977.226485	-54.092044	331.632875	1064.872737	-66.692880	476.498941	907.230261	-75.645457	463.696806	898.872968	-197.310636	385.289300	824.862093	-44.331421	345.580413	744.927777	-60.281276	274.259986	697.085727	-60.813113	370.552034	727.676309	-87.464036	188.887959	609.656358	-64.438670	213.322521	617.459862	-151.384188	104.053624	616.750851	-109.459996	364.560875	470.169136	-99.388577	269.645672	486.618514	-34.199433	138.770293	943.099600	-437.723768	191.868547	873.430660	-435.919028	224.811047	886.928755	-426.149576	202.075828	785.129212	-432.881466	236.241798	662.645273	-405.970306	234.310628	637.358480	-302.760299	199.695976	245.506434	-405.583550	230.077377	266.307940	-324.084115	139.527415	231.329100	-364.789977	337.564964	142.923389	-414.965012	211.582629	535.036147	-432.616637	230.366117	452.521131	-418.798871	205.587229	367.462400	-416.655015	254.948367	454.618473	-386.978684	421.025896	164.632789	-344.563103	-141.883875	938.860151	-224.002175	18.226769	83.409165	-426.234523	11.192654	80.576459	-27.769320	
1752	8.7600	526.084156	1321.973698	-9.912242	558.611098	1327.070263	-358.886692	525.266862	1424.906209	-181.515539	483.954791	1267.244404	-188.936115	532.215781	1067.825885	78.660427	765.972605	931.345750	-47.004484	547.029272	1089.372889	-513.194446	758.451681	936.698242	-421.786157	-11.050656	1206.858210	-258.697613	158.099246	1198.238222	-394.519497	113.887205	1222.689662	-82.247361	174.989981	1142.825697	-361.751594	159.921765	1176.194380	-112.848980	10.747085	1251.299234	-210.858914	20.713533	1248.086128	-304.412478	77.637126	1131.358866	-45.617506	84.470952	1069.972285	-424.172326	229.046974	1053.483561	-48.920651	316.111292	1037.009988	-53.116209	381.981126	981.135967	-53.483941	331.160903	1068.433248	-66.542029	477.523842	912.332258	-74.384594	467.204546	903.649323	-196.767867	388.613489	828.482790	-43.457254	349.814983	747.831180	-59.575523	279.223507	698.849380	-60.269072	375.029852	731.279823	-86.703087	194.706307	609.604904	-64.292539	218.895233	617.900304	-151.189691	109.196223	613.680125	-109.300857	374.626764	476.286485	-99.261558	279.354703	489.212202	-34.107064	136.089075	942.517373	-439.475880	188.422649	872.251572	-438.525444	221.653633	885.333981	-428.862338	197.580631	783.743635	-434.964511	231.740032	661.630108	-406.808834	230.883626	636.617624	-303.281833	189.848918	244.982785	-405.326896	220.550873	265.570154	-323.279206	129.722978	231.142657	-364.244898	326.879994	141.013780	-415.077685	205.608689	534.397779	-432.700483	222.788076	451.407930	-418.136976	197.238194	366.978234	-416.357243	248.076616	453.348390	-387.036033	410.674200	161.847995	-344.822416	-141.989754	938.869615	-224.200492	18.203007	83.452030	-426.228681	11.227856	80.792868	-27.616142	
1753	8.7650	525.657346	1321.056249	-7.886925	559.163462	1326.189904	-356.411991	525.415948	1423.971012	-179.305291	483.974902	1266.340025	-186.901399	531.544588	1066.626197	80.053068	765.259746	930.869125	-47.114992	547.895049	1089.594292	-512.317152	759.373388	936.879877	-421.714263	-11.132737	1208.136019	-259.800254	158.679787	1198.024041	-394.645738	113.582057	1223.955107	-83.072052	176.426945	1143.610400	-364.848240	159.651795	1177.388316	-113.291889	10.949294	1252.570658	-211.962634	20.987234	1249.122237	-305.715443	77.799767	1133.913416	-46.384489	84.087072	1070.228704	-424.815287	228.579445	1055.938633	-49.023534	316.081401	1040.219937	-51.350306	381.752748	984.289646	-52.684530	330.669967	1071.222739	-66.146175	478.040807	916.024911	-73.077561	470.003907	907.399954	-196.006331	390.190805	830.998717	-42.672967	353.234109	749.878552	-58.711929	283.227454	699.743754	-59.851826	378.652425	733.575721	-85.966875	199.951158	608.467737	-64.265620	224.759321	617.567034	-150.750040	114.118515	609.183768	-109.109867	384.606738	482.198325	-99.107510	288.927141	491.230779	-33.896148	133.617260	942.166076	-440.968688	185.413217	871.357616	-440.940492	218.883501	884.216319	-431.468812	193.780637	782.825532	-437.223165	228.503124	661.130150	-407.336643	228.601986	636.287726	-303.438496	179.985720	245.234350	-404.927802	211.648512	265.279730	-323.039765	119.852750	231.691193	-363.486310	316.059768	139.801163	-415.162170	200.655252	534.358020	-432.515564	216.401473	451.173840	-417.891256	189.340741	367.221226	-415.864207	242.003679	452.729700	-387.102164	400.262187	159.831275	-345.134291	-142.071330	938.858022	-224.307005	18.182766	83.392335	-426.307610	11.183300	80.796751	-27.640708	
1754	8.7700	525.153381	1320.248428	-6.008156	559.549725	1325.250586	-354.133737	525.637982	1423.064292	-177.277766	483.765491	1265.540600	-184.969558	530.921481	1065.483401	81.360561	764.520808	930.445562	-47.233526	548.804944	1089.624799	-511.539984	760.262475	936.934509	-421.670838	-11.275504	1209.465701	-260.784294	159.034326	1198.103416	-394.999776	113.162858	1225.196688	-83.848642	174.724753	1142.439673	-362.362292	159.380467	1178.616308	-113.507372	11.147041	1253.915929	-212.895723	21.164703	1250.336347	-306.799256	77.743084	1136.164414	-47.196858	83.770852	1070.655236	-425.454844	227.811246	1057.671614	-49.109163	315.596564	1042.398677	-50.545464	381.355808	986.558754	-51.792307	330.105852	1073.354915	-65.517312	478.113408	918.342833	-71.746959	471.893868	910.043742	-195.022924	391.652819	832.529291	-41.639465	355.722414	750.718991	-57.781827	286.400289	699.482054	-59.380416	381.536093	734.982498	-84.869572	204.720557	606.008346	-64.138829	229.398469	615.897750	-150.592045	119.011364	603.139961	-109.180787	394.328301	487.817479	-98.926570	298.330007	492.678239	-33.627795	131.466497	942.037537	-442.362661	182.886143	870.957167	-443.118764	216.580607	883.635464	-433.938785	190.850510	782.384114	-439.182763	226.630417	661.403517	-407.539318	227.246211	636.329818	-303.418789	170.341553	246.308408	-404.376387	202.530594	265.895142	-322.371140	110.156325	233.088401	-362.665405	305.226681	139.280099	-415.243790	196.713508	535.086780	-432.109540	210.736883	451.553386	-417.378870	181.998359	368.207956	-415.145311	236.703561	452.538500	-386.792282	389.769296	158.395834	-345.401760	-141.990603	938.843433	-224.336265	18.149643	83.462346	-426.248680	11.184054	80.872345	-27.660182	
